{"title":"Patang (2012) 1080p WebRip x264 MSubs -DDR","uid":15834028,"size":4436909982,"categoryP":"video","categoryS":"hd___movies","magnet":"?xt=urn:btih:78110eda402c8acf0c11073f98d3c2439292dfc4&amp;dn=Patang+%282012%29+1080p+WebRip+x264+MSubs+-DDR&amp;tr=udp%3A%2F%2Ftracker.leechers-paradise.org%3A6969&amp;tr=udp%3A%2F%2Fzer0day.ch%3A1337&amp;tr=udp%3A%2F%2Fopen.demonii.com%3A1337&amp;tr=udp%3A%2F%2Ftracker.coppersurfer.tk%3A6969&amp;tr=udp%3A%2F%2Fexodus.desync.com%3A6969","seeders":6,"leechers":14,"uploader":"SaM","files":3,"time":1473951194,"description":"1080p WebRip x264\r\n\r\nHindi AAC 2.0 Audio\r\n\r\n\r\n\r\nEnglish &amp; French Subtitles\r\n\r\n\r\nAWARDS\r\nHawaii International Film Festival 2011\r\nWon\r\nHalekulani Golden Orchid Award Narrative Feature\r\nPrashant Bhargava\r\n\r\nTribeca Film Festival 2011\r\nNominated\r\nJury Award Best Narrative Feature\r\nPrashant Bhargava\r\n\r\n\r\n\r\n\r\n\r\n{ SCREENSHOTS }\r\n \nhttp://extraimago.com/image/wIWf \nhttp://extraimago.com/image/wIWW \nhttp://extraimago.com/image/wIWA \nhttp://extraimago.com/image/wIWv \nhttp://extraimago.com/image/wIWu \nhttp://extraimago.com/image/wIWV \nhttp://extraimago.com/image/wIW6 \nhttp://extraimago.com/image/wIWx \nhttp://extraimago.com/image/wIWt \nhttp://extraimago.com/image/wIWo \nhttp://extraimago.com/image/wIWk \nhttp://extraimago.com/image/wIWH \nhttp://extraimago.com/image/wIWF \nhttp://extraimago.com/image/wIWD\r\n\r\nSpecs:\r\nSource: Netflix HD Rip @ DDR\r\n\r\nFormat : Matroska\r\nFormat version : Version 4 / Version 2\r\nFile size : 4.08 GiB\r\nDuration : 1 h 33 min\r\nOverall bit rate : 6 239 kb/s\r\nEncoded date : UTC 2016-09-15 05:02:32\r\nWriting application : mkvmerge v9.2.0 ('Photograph') 64bit\r\nWriting library : libebml v1.3.3 + libmatroska v1.4.4\r\n\r\nVideo\r\nID : 1\r\nFormat : AVC\r\nFormat/Info : Advanced Video Codec\r\nFormat profile :   \r\nFormat settings, CABAC : Yes\r\nFormat settings, ReFrames : 4 frames\r\nCodec ID : V_MPEG4/ISO/AVC\r\nDuration : 1 h 33 min\r\nBit rate : 6 015 kb/s\r\nWidth : 1 920 pixels\r\nHeight : 960 pixels\r\nDisplay aspect ratio : 2.000\r\nFrame rate mode : Constant\r\nFrame rate : 24.000 FPS\r\nColor space : YUV\r\nChroma subsampling : 4:2:0\r\nBit depth : 8 bits\r\nScan type : Progressive\r\nBits/(Pixel*Frame) : 0.136\r\nStream size : 3.94 GiB (96%)\r\nLanguage : English\r\nDefault : Yes\r\nForced : No\r\nColor range : Limited\r\nColor primaries : BT.709\r\nTransfer characteristics : BT.709\r\nMatrix coefficients : BT.709\r\n\r\nAudio\r\nID : 2\r\nFormat : AAC\r\nFormat/Info : Advanced Audio Codec\r\nFormat profile : LC\r\nCodec ID : A_AAC\r\nDuration : 1 h 33 min\r\nBit rate : 221 kb/s\r\nChannel(s) : 2 channels\r\nChannel positions : Front: L R\r\nSampling rate : 48.0 kHz\r\nFrame rate : 46.875 FPS (1024 spf)\r\nCompression mode : Lossy\r\nDelay relative to video : 2 ms\r\nStream size : 148 MiB (4%)\r\nLanguage : Hindi\r\nDefault : Yes\r\nForced : No","torrent":{"xt":"urn:btih:78110eda402c8acf0c11073f98d3c2439292dfc4","amp;dn":"Patang+%282012%29+1080p+WebRip+x264+MSubs+-DDR","amp;tr":["udp%3A%2F%2Ftracker.leechers-paradise.org%3A6969","udp%3A%2F%2Fzer0day.ch%3A1337","udp%3A%2F%2Fopen.demonii.com%3A1337","udp%3A%2F%2Ftracker.coppersurfer.tk%3A6969","udp%3A%2F%2Fexodus.desync.com%3A6969"],"infoHash":"78110eda402c8acf0c11073f98d3c2439292dfc4","infoHashBuffer":{"type":"Buffer","data":[120,17,14,218,64,44,138,207,12,17,7,63,152,211,194,67,146,146,223,196]},"announce":[],"urlList":[]}}